# xmcd
#
# Track frame offsets:
#	151
#	30588
#	54623
#	77386
#	97742
#	119043
#	141208
#	160251
#	181542
#	204865
#	226454
#	238423
#	266042
#	289023
#
# Disc length: 4129 seconds
#
# Revision: 0
# Processed by: cddbd v1.4PL0 Copyright (c) Steve Scherf et al.
# Submitted via: dBpowerAMP V4.0
#
DISCID=b9101f0e
DTITLE=Salsa mix vol 1 - Siempre Salsa vol 1
DYEAR=1900
DGENRE=Latin
TTITLE0=Sonido bestial (Richie Ray)
TTITLE1=Claro (Tito Rojas)
TTITLE2=Juguete de nadie (Puerto Rican Power)
TTITLE3=Dormida en mi hamaca (Guayacan Orquesta)
TTITLE4=Esa mujer (Costa Brava)
TTITLE5=Pagina de amor (Tito Gomez)
TTITLE6=Verdades (Hansel Camacho)
TTITLE7=He decidido olvidarte (Pedro Arroyo)
TTITLE8=Doble (Tito Rojas)
TTITLE9=Pequeña y fragil (Gustavo Rodriguez)
TTITLE10=El Pañuelito (Ismael Rivera)
TTITLE11=Corazon embustero (La Grande de Madrid)
TTITLE12=Como una hoguera (Guayacan Orquesta)
TTITLE13=Para nada (Cheo Andujar)
EXTD=
EXTT0=
EXTT1=
EXTT2=
EXTT3=
EXTT4=
EXTT5=
EXTT6=
EXTT7=
EXTT8=
EXTT9=
EXTT10=
EXTT11=
EXTT12=
EXTT13=
PLAYORDER=
